<svg xmlns="http://www.w3.org/2000/svg" xmlns:xlink="http://www.w3.org/1999/xlink" version="1.1" x="0px" y="0px" viewBox="-17.5 -17.5 100 125" enable-background="new -17.5 -17.5 100 100" xml:space="preserve"><path d="M21.294,6.321c-6.568,0-11.911-5.343-11.911-11.911S14.727-17.5,21.294-17.5c6.567,0,11.911,5.343,11.911,11.911  S27.862,6.321,21.294,6.321z M21.294-16c-5.741,0-10.411,4.67-10.411,10.411s4.67,10.411,10.411,10.411  c5.74,0,10.411-4.67,10.411-10.411S27.035-16,21.294-16z"/><path d="M-1.027,49.53c-6.567,0-11.911-5.344-11.911-11.911s5.343-11.911,11.911-11.911s11.911,5.343,11.911,11.911  S5.54,49.53-1.027,49.53z M-1.027,27.208c-5.74,0-10.411,4.67-10.411,10.411S-6.768,48.03-1.027,48.03S9.383,43.359,9.383,37.619  S4.713,27.208-1.027,27.208z"/><path d="M46.304,43.779c-6.567,0-11.91-5.344-11.91-11.911s5.343-11.911,11.91-11.911s11.911,5.343,11.911,11.911  S52.871,43.779,46.304,43.779z M46.304,21.458c-5.74,0-10.41,4.67-10.41,10.411s4.67,10.411,10.41,10.411  s10.411-4.671,10.411-10.411S52.044,21.458,46.304,21.458z"/><path d="M25.053,82.5c-6.567,0-11.911-5.343-11.911-11.91s5.343-11.911,11.911-11.911s11.911,5.344,11.911,11.911  S31.621,82.5,25.053,82.5z M25.053,60.179c-5.74,0-10.411,4.671-10.411,10.411S19.313,81,25.053,81s10.411-4.67,10.411-10.41  S30.793,60.179,25.053,60.179z"/><path d="M2.794,20.082c-0.146,0-0.294-0.042-0.424-0.131c-0.341-0.234-0.429-0.701-0.194-1.043L9.515,8.205  c0.234-0.342,0.702-0.427,1.043-0.194c0.341,0.234,0.429,0.701,0.194,1.043L3.414,19.756C3.268,19.968,3.033,20.082,2.794,20.082z"/><path d="M2.794,20.082c-0.331,0-0.634-0.22-0.724-0.555l-2.141-7.95c-0.108-0.4,0.129-0.812,0.529-0.919  c0.396-0.109,0.811,0.129,0.919,0.529l2.141,7.95c0.108,0.4-0.129,0.812-0.529,0.919C2.925,20.073,2.859,20.082,2.794,20.082z"/><path d="M2.794,20.082c-0.348,0-0.66-0.243-0.733-0.597c-0.084-0.405,0.176-0.803,0.582-0.887l7.338-1.529  c0.402-0.084,0.803,0.176,0.887,0.582c0.084,0.405-0.176,0.803-0.582,0.887l-7.338,1.529C2.896,20.077,2.845,20.082,2.794,20.082z"/><path d="M38.813,17.482c-0.239,0-0.475-0.114-0.619-0.326L30.856,6.455c-0.234-0.342-0.147-0.809,0.194-1.043  c0.343-0.233,0.809-0.147,1.043,0.194l7.337,10.702c0.234,0.342,0.147,0.809-0.194,1.043C39.107,17.44,38.959,17.482,38.813,17.482z  "/><path d="M38.813,17.482c-0.064,0-0.13-0.008-0.195-0.026c-0.399-0.107-0.637-0.519-0.529-0.919l2.141-7.95  c0.108-0.4,0.521-0.635,0.92-0.529c0.399,0.107,0.637,0.519,0.529,0.919l-2.141,7.95C39.446,17.262,39.144,17.482,38.813,17.482z"/><path d="M38.813,17.482c-0.051,0-0.103-0.005-0.154-0.016l-7.337-1.529c-0.406-0.084-0.666-0.482-0.582-0.887  c0.084-0.406,0.484-0.668,0.887-0.582l7.338,1.529c0.405,0.084,0.665,0.482,0.581,0.887C39.473,17.239,39.161,17.482,38.813,17.482z  "/><path d="M25.052,54.022c-0.383,0-0.71-0.292-0.746-0.681l-3.759-40.515c-0.039-0.413,0.265-0.778,0.677-0.816  c0.406-0.045,0.778,0.265,0.816,0.677L25.8,53.203c0.039,0.412-0.265,0.778-0.677,0.816C25.099,54.021,25.076,54.022,25.052,54.022z  "/><path d="M25.053,54.022c-0.196,0-0.393-0.077-0.54-0.229l-5.899-6.115c-0.288-0.298-0.279-0.772,0.019-1.061  c0.298-0.285,0.773-0.277,1.06,0.02l5.899,6.115c0.288,0.298,0.279,0.772-0.019,1.061C25.428,53.952,25.241,54.022,25.053,54.022z"/><path d="M25.053,54.022c-0.162,0-0.325-0.053-0.463-0.16c-0.326-0.256-0.382-0.728-0.126-1.053l4.803-6.115  c0.256-0.326,0.727-0.381,1.053-0.127c0.326,0.256,0.382,0.728,0.126,1.053l-4.803,6.115C25.495,53.924,25.275,54.022,25.053,54.022  z"/><path d="M40.953,64.419c-0.414,0-0.75-0.336-0.75-0.75s0.336-0.75,0.75-0.75c1.878-0.012,30.508-6.82,34.921-22.873  c3.505-12.751-9.095-27.889-37.449-44.993c-0.354-0.214-0.469-0.675-0.255-1.029c0.215-0.355,0.675-0.471,1.03-0.255  c29.038,17.517,41.858,33.238,38.105,46.728C72.597,57.419,42.897,64.419,40.953,64.419z"/><path d="M40.953,64.419c-0.102,0-0.204-0.021-0.303-0.063c-0.379-0.167-0.551-0.61-0.384-0.989l3.325-7.543  c0.168-0.379,0.61-0.548,0.989-0.384c0.379,0.167,0.551,0.61,0.384,0.989l-3.325,7.543C41.516,64.252,41.241,64.419,40.953,64.419z"/><path d="M48.354,68.495c-0.122,0-0.246-0.03-0.36-0.093l-7.402-4.076c-0.363-0.2-0.495-0.656-0.296-1.019  c0.199-0.364,0.656-0.494,1.019-0.296l7.402,4.076c0.363,0.2,0.495,0.656,0.296,1.019C48.876,68.355,48.619,68.495,48.354,68.495z"/></svg>